<svg data-v-423bf9ae="" xmlns="http://www.w3.org/2000/svg" viewBox="0 0 752 90" class="iconLeft"><!----><!----><!----><g data-v-423bf9ae="" id="31b5b910-e485-4a1a-82cb-7d75934c2a03" fill="black" transform="matrix(4.233550548553467,0,0,4.233550548553467,138.36669921875,3.5799975395202637)"><path d="M7.91 5.36L7.91 5.36Q7.91 5.54 7.76 5.59L7.76 5.59L7.76 5.59Q7.62 5.64 7.34 5.64L7.34 5.64L7.34 5.64Q7.14 5.26 7.10 4.85L7.10 4.85L7.10 4.85Q7.06 4.44 7.06 3.65L7.06 3.65L7.06 3.65Q5.91 3.65 5.19 3.70L5.19 3.70L5.19 3.70Q4.48 3.75 3.91 3.95L3.91 3.95L3.91 3.95Q3.79 4.19 3.79 4.76L3.79 4.76L3.79 4.76Q3.79 5.07 3.85 5.85L3.85 5.85L3.85 5.85Q3.91 6.69 3.91 7.08L3.91 7.08L3.91 7.08Q3.91 7.17 3.89 7.25L3.89 7.25L3.89 7.25Q3.88 7.32 3.86 7.39L3.86 7.39L3.86 7.39Q3.79 7.64 3.79 7.87L3.79 7.87L3.79 7.87Q3.79 8.09 3.91 8.22L3.91 8.22L4.77 8.22L4.77 7.08L4.77 7.08Q5.29 7.06 5.48 7.43L5.48 7.43L5.48 7.43Q5.67 7.81 5.67 8.47L5.67 8.47L5.67 8.47Q5.67 8.72 5.64 9.14L5.64 9.14L5.63 9.65L5.63 9.65Q5.42 9.86 5.31 9.89L5.31 9.89L5.31 9.89Q5.21 9.93 4.77 9.93L4.77 9.93L4.77 9.37L4.77 9.37Q4.59 9.17 4.40 9.12L4.40 9.12L4.40 9.12Q4.20 9.07 3.91 9.07L3.91 9.07L3.91 9.07Q3.72 9.27 3.65 9.48L3.65 9.48L3.65 9.48Q3.57 9.69 3.57 9.95L3.57 9.95L3.57 9.95Q3.57 10.09 3.60 10.43L3.60 10.43L3.60 10.43Q3.64 10.72 3.64 11.07L3.64 11.07L3.64 11.07Q3.46 11.44 3.41 11.93L3.41 11.93L3.41 11.93Q3.36 12.42 3.36 13.08L3.36 13.08L3.36 13.93L3.36 13.93Q3.36 14.49 3.41 14.88L3.41 14.88L3.41 14.88Q3.46 15.26 3.64 15.64L3.64 15.64L3.64 15.64Q3.79 15.64 4.04 15.87L4.04 15.87L4.04 15.87Q4.28 16.10 4.28 16.28L4.28 16.28L4.28 16.28Q4.28 16.49 3.91 16.49L3.91 16.49L3.91 16.49Q3.91 16.62 3.82 16.62L3.82 16.62L3.82 16.62Q3.78 16.62 3.62 16.55L3.62 16.55L3.62 16.55Q3.46 16.49 3.36 16.49L3.36 16.49L3.36 16.49Q3.25 16.49 3.12 16.54L3.12 16.54L3.12 16.54Q3.00 16.59 2.95 16.60L2.95 16.60L2.95 16.60Q2.93 16.62 2.71 16.70L2.71 16.70L2.71 16.70Q2.49 16.77 2.20 16.77L2.20 16.77L2.20 16.77Q2.06 16.77 1.64 16.63L1.64 16.63L1.64 16.63Q1.19 16.49 1.06 16.49L1.06 16.49L1.06 16.49Q0.88 16.49 0.83 16.34L0.83 16.34L0.83 16.34Q0.78 16.20 0.78 15.92L0.78 15.92L0.78 15.92Q0.91 15.79 1.04 15.73L1.04 15.73L1.04 15.73Q1.16 15.67 1.24 15.65L1.24 15.65L1.24 15.65Q1.32 15.64 1.34 15.64L1.34 15.64L1.34 15.64Q1.58 15.51 1.65 15.24L1.65 15.24L1.65 15.24Q1.72 14.97 1.76 14.41L1.76 14.41L1.76 14.41Q1.79 13.72 1.92 13.34L1.92 13.34L1.92 11.07L1.92 11.07Q1.92 10.93 1.99 10.56L1.99 10.56L1.99 10.56Q2.04 10.28 2.04 10.15L2.04 10.15L2.04 10.15Q2.04 9.90 1.92 9.65L1.92 9.65L1.92 9.65Q1.92 9.51 2.02 9.27L2.02 9.27L2.02 9.27Q2.20 8.85 2.20 8.51L2.20 8.51L2.20 8.51Q2.20 8.08 2.06 7.07L2.06 7.07L2.06 7.07Q1.92 6.06 1.92 5.64L1.92 5.64L1.92 5.64Q1.92 5.46 1.97 5.04L1.97 5.04L1.97 5.04Q2.04 4.62 2.04 4.30L2.04 4.30L2.04 4.30Q2.04 3.91 1.92 3.65L1.92 3.65L1.92 3.65Q1.79 3.65 1.33 3.72L1.33 3.72L1.33 3.72Q0.99 3.78 0.87 3.78L0.87 3.78L0.87 3.78Q0.62 3.78 0.49 3.65L0.49 3.65L0.49 3.65Q0.28 3.44 0.28 3.23L0.28 3.23L0.28 3.23Q0.28 3.01 0.49 2.80L0.49 2.80L6.20 2.80L7.34 2.80L7.34 2.80Q7.69 2.80 7.82 3.15L7.82 3.15L7.82 3.15Q7.95 3.50 7.95 4.10L7.95 4.10L7.95 4.10Q7.95 4.37 7.92 4.82L7.92 4.82L7.91 5.36ZM15.04 15.46L15.04 15.46Q14.90 15.71 14.67 15.95L14.67 15.95L14.67 15.95Q14.45 16.18 14.25 16.31L14.25 16.31L14.25 16.31Q13.44 16.83 12.53 16.83L12.53 16.83L12.53 16.83Q11.62 16.83 10.84 16.34L10.84 16.34L10.84 16.34Q10.07 15.86 9.69 15.16L9.69 15.16L9.69 15.16Q9.17 14.18 8.82 13.15L8.82 13.15L8.82 13.15Q8.64 12.40 8.59 11.64L8.59 11.64L8.59 11.64Q8.54 10.88 8.54 9.73L8.54 9.73L8.54 9.73Q8.54 9.55 8.51 9.21L8.51 9.21L8.51 9.21Q8.48 8.85 8.48 8.67L8.48 8.67L8.48 8.67Q8.48 8.34 8.54 8.01L8.54 8.01L8.54 8.01Q8.55 7.92 8.62 7.55L8.62 7.55L8.62 7.55Q8.69 7.17 8.69 6.92L8.69 6.92L8.69 6.92Q8.72 6.78 8.79 6.38L8.79 6.38L8.79 6.38Q8.85 6.01 8.91 5.78L8.91 5.78L8.91 5.78Q8.97 5.56 9.11 5.43L9.11 5.43L9.11 5.43Q9.27 5.22 9.58 4.75L9.58 4.75L9.58 4.75Q10.00 4.10 10.30 3.74L10.30 3.74L10.30 3.74Q10.60 3.37 11.05 3.11L11.05 3.11L11.05 3.11Q11.51 2.84 12.12 2.84L12.12 2.84L12.12 2.84Q12.40 2.84 12.56 2.87L12.56 2.87L12.56 2.87Q13.40 2.87 13.89 3.12L13.89 3.12L13.89 3.12Q14.39 3.37 14.83 4.02L14.83 4.02L14.83 4.02Q15.48 4.45 15.94 5.36L15.94 5.36L15.94 5.36Q16.39 6.27 16.49 7.36L16.49 7.36L16.49 7.36Q16.55 7.94 16.55 8.88L16.55 8.88L16.55 9.49L16.55 9.49Q16.55 10.92 16.31 11.91L16.31 11.91L16.31 11.91Q15.89 13.90 15.04 15.46L15.04 15.46ZM13.79 15.26L13.79 15.26Q13.97 14.80 14.20 14.08L14.20 14.08L14.20 14.08Q14.43 13.37 14.55 12.88L14.55 12.88L14.55 12.88Q14.73 12.31 14.78 11.73L14.78 11.73L14.78 11.73Q14.83 11.16 14.83 10.30L14.83 10.30L14.83 10.30Q14.83 10.01 14.88 9.56L14.88 9.56L14.88 9.56Q14.88 9.48 14.90 9.26L14.90 9.26L14.90 9.26Q14.92 9.04 14.92 8.85L14.92 8.85L14.92 8.85Q14.92 8.65 14.91 8.39L14.91 8.39L14.91 8.39Q14.90 8.13 14.88 7.99L14.88 7.99L14.88 7.99Q14.83 7.43 14.83 7.15L14.83 7.15L14.83 7.15Q14.69 6.87 14.55 6.31L14.55 6.31L14.55 6.31Q14.41 5.73 14.25 5.43L14.25 5.43L14.10 5.10L14.10 5.10Q13.85 4.55 13.65 4.24L13.65 4.24L13.65 4.24Q13.45 3.93 13.15 3.78L13.15 3.78L13.15 3.78Q12.87 3.78 12.59 3.75L12.59 3.75L12.59 3.75Q12.28 3.72 11.98 3.72L11.98 3.72L11.98 3.72Q11.56 4.14 11.31 4.60L11.31 4.60L11.31 4.60Q11.06 5.05 10.84 5.71L10.84 5.71L10.84 5.71Q10.64 6.09 10.59 6.48L10.59 6.48L10.59 6.48Q10.54 6.86 10.54 7.43L10.54 7.43L10.54 7.43Q10.43 8.33 10.43 9.42L10.43 9.42L10.43 9.42Q10.43 11.40 10.84 13.72L10.84 13.72L10.84 13.72Q10.93 13.92 11.00 14.14L11.00 14.14L11.00 14.14Q11.06 14.36 11.09 14.43L11.09 14.43L11.09 14.43Q11.17 14.73 11.23 14.89L11.23 14.89L11.23 14.89Q11.30 15.05 11.41 15.16L11.41 15.16L11.41 15.16Q11.52 15.16 11.56 15.20L11.56 15.20L11.56 15.20Q11.59 15.25 11.62 15.39L11.62 15.39L11.62 15.39Q11.65 15.53 11.73 15.61L11.73 15.61L11.73 15.61Q11.96 15.83 12.46 15.83L12.46 15.83L12.46 15.83Q12.89 15.83 13.29 15.67L13.29 15.67L13.29 15.67Q13.69 15.51 13.79 15.26L13.79 15.26ZM22.99 9.02L22.99 9.02Q23.38 9.52 23.59 10.26L23.59 10.26L23.59 10.26Q23.80 11.00 23.89 11.78L23.89 11.78L23.89 11.78Q23.98 12.56 24.05 13.78L24.05 13.78L24.05 13.78Q24.14 15.19 24.22 15.82L24.22 15.82L24.22 15.82Q24.53 15.82 24.67 15.87L24.67 15.87L24.67 15.87Q24.81 15.92 24.81 16.11L24.81 16.11L24.81 16.11Q24.81 16.80 23.80 16.80L23.80 16.80L23.80 16.80Q23.51 16.80 22.72 16.70L22.72 16.70L22.72 16.70Q22.54 16.52 22.50 16.30L22.50 16.30L22.50 16.21L22.50 16.21Q22.50 16.11 22.58 15.72L22.58 15.72L22.58 15.72Q22.62 15.51 22.67 15.23L22.67 15.23L22.67 15.23Q22.72 14.94 22.72 14.63L22.72 14.63L22.72 14.63Q22.72 14.20 22.65 13.83L22.65 13.83L22.65 13.83Q22.58 13.38 22.58 12.70L22.58 12.70L22.58 12.70Q22.55 11.87 22.47 11.36L22.47 11.36L22.47 11.36Q22.39 10.85 22.06 10.40L22.06 10.40L21.90 10.15L21.90 10.15Q21.70 9.83 21.48 9.60L21.48 9.60L21.48 9.60Q21.48 9.48 21.41 9.41L21.41 9.41L21.41 9.41Q21.35 9.34 21.20 9.24L21.20 9.24L21.20 9.24Q21 9.13 20.87 9.02L20.87 9.02L20.87 9.02Q20.58 9.02 20.43 9.07L20.43 9.07L20.43 9.07Q20.29 9.11 20.29 9.30L20.29 9.30L20.29 9.30Q20.15 10.01 20.15 10.88L20.15 10.88L20.15 10.88Q20.15 11.48 20.23 12.54L20.23 12.54L20.23 12.54Q20.29 13.47 20.29 13.80L20.29 13.80L20.29 13.80Q20.29 14.42 20.34 14.82L20.34 14.82L20.34 14.82Q20.38 15.22 20.57 15.62L20.57 15.62L20.57 15.62Q20.57 15.72 20.64 15.79L20.64 15.79L20.64 15.79Q20.72 15.85 20.87 15.92L20.87 15.92L20.87 15.92Q21.01 15.99 21.09 16.04L21.09 16.04L21.09 16.04Q21.17 16.10 21.17 16.20L21.17 16.20L21.17 16.20Q21.17 16.25 21.17 16.42L21.17 16.42L21.17 16.42Q21.17 16.59 21.11 16.66L21.11 16.66L21.11 16.66Q21.06 16.73 20.92 16.73L20.92 16.73L20.92 16.73Q20.66 16.73 20.33 16.69L20.33 16.69L20.33 16.69Q20.20 16.69 19.92 16.67L19.92 16.67L19.92 16.67Q19.64 16.65 19.43 16.65L19.43 16.65L19.43 16.65Q18.80 16.65 18.48 16.81L18.48 16.81L18.48 16.81Q18.10 16.81 17.92 16.79L17.92 16.79L17.92 16.79Q17.74 16.76 17.58 16.63L17.58 16.63L17.58 16.63Q17.43 16.49 17.28 16.20L17.28 16.20L17.28 16.20Q17.49 16.02 17.68 15.97L17.68 15.97L17.68 15.97Q17.88 15.92 18.17 15.92L18.17 15.92L18.17 10.81L18.17 10.81Q18.17 10.67 18.20 10.48L18.20 10.48L18.20 10.48Q18.23 10.29 18.24 10.21L18.24 10.21L18.24 10.21Q18.31 9.88 18.31 9.62L18.31 9.62L18.31 9.62Q18.31 9.30 18.17 9.02L18.17 9.02L18.17 9.02Q18.17 8.82 18.21 8.65L18.21 8.65L18.21 8.65Q18.27 8.29 18.27 8.23L18.27 8.23L18.27 8.23Q18.30 7.76 18.30 7.55L18.30 7.55L18.30 7.55Q18.30 7.11 18.24 6.22L18.24 6.22L18.24 6.22Q18.23 6.05 18.20 5.54L18.20 5.54L18.20 5.54Q18.17 5.03 18.17 4.51L18.17 4.51L18.17 4.51Q17.70 4.51 17.39 4.40L17.39 4.40L17.39 4.40Q17.08 4.30 17.08 4.07L17.08 4.07L17.08 4.07Q17.08 3.64 17.21 3.45L17.21 3.45L17.21 3.45Q17.35 3.26 17.59 3.22L17.59 3.22L17.59 3.22Q17.84 3.18 18.38 3.18L18.38 3.18L18.38 3.18Q18.54 3.18 18.73 3.09L18.73 3.09L18.73 3.09Q18.90 3.01 19.05 3.01L19.05 3.01L19.05 3.01Q19.89 2.87 20.68 2.87L20.68 2.87L20.68 2.87Q21.91 2.87 22.79 3.25L22.79 3.25L22.79 3.25Q23.66 3.63 23.87 4.51L23.87 4.51L23.87 4.51Q24.05 5.24 24.05 5.85L24.05 5.85L24.05 5.85Q24.05 6.47 23.87 6.90L23.87 6.90L23.87 6.90Q23.76 7.18 23.50 7.52L23.50 7.52L23.50 7.52Q23.24 7.85 22.99 8.11L22.99 8.11L22.68 8.41L22.68 8.41Q22.68 8.58 22.83 8.71L22.83 8.71L22.83 8.71Q22.99 8.86 22.99 9.02L22.99 9.02ZM20.01 3.93L20.01 3.93Q20.01 5.31 20.12 7.63L20.12 7.63L20.12 7.63Q20.12 7.78 20.36 7.78L20.36 7.78L20.36 7.78Q20.65 7.78 21.13 7.59L21.13 7.59L21.13 7.59Q21.60 7.39 21.78 7.21L21.78 7.21L21.78 7.21Q21.78 7.04 21.92 6.57L21.92 6.57L21.92 6.57Q22.04 6.22 22.06 6.02L22.06 6.02L22.06 6.02Q22.12 5.73 22.12 5.54L22.12 5.54L22.12 5.54Q22.12 5.40 22.09 5.22L22.09 5.22L22.09 5.22Q22.06 5.04 22.06 4.82L22.06 4.82L22.06 4.82Q22.06 4.56 21.95 4.40L21.95 4.40L21.95 4.40Q21.84 4.24 21.69 4.10L21.69 4.10L21.69 4.10Q21.53 3.96 21.48 3.91L21.48 3.91L20.01 3.93ZM29.99 7.71L29.99 7.71Q29.99 7.85 30.07 7.92L30.07 7.92L30.07 7.92Q30.16 7.98 30.41 8.09L30.41 8.09L30.41 8.09Q30.58 8.15 30.84 8.29L30.84 8.29L30.84 8.29Q31.32 8.76 31.65 9.59L31.65 9.59L31.65 9.59Q31.98 10.42 31.98 11.42L31.98 11.42L31.98 11.42Q32.03 11.77 32.03 12.24L32.03 12.24L32.03 12.24Q32.03 13.58 31.47 14.80L31.47 14.80L31.47 14.80Q30.90 16.02 29.99 16.58L29.99 16.58L29.99 16.58Q29.60 16.77 29.18 16.81L29.18 16.81L29.18 16.81Q28.77 16.86 27.99 16.86L27.99 16.86L27.99 16.86Q27.69 16.86 27.13 16.72L27.13 16.72L27.13 16.72Q26.54 16.58 26.26 16.58L26.26 16.58L26.26 16.58Q25.91 16.58 25.75 16.55L25.75 16.55L25.75 16.55Q25.59 16.52 25.50 16.40L25.50 16.40L25.50 16.40Q25.41 16.28 25.41 16.00L25.41 16.00L25.41 15.71L26.26 15.71L26.26 15.71Q26.35 15.36 26.40 14.59L26.40 14.59L26.40 14.59Q26.42 14.20 26.42 13.38L26.42 13.38L26.42 13.38Q26.42 12.56 26.44 11.99L26.44 11.99L26.44 11.99Q26.46 11.42 26.56 10.85L26.56 10.85L26.56 10.29L26.56 8.86L26.56 5.99L26.56 3.71L26.56 3.71Q25.98 3.71 25.70 3.61L25.70 3.61L25.70 3.61Q25.41 3.51 25.41 3.14L25.41 3.14L25.41 3.14Q25.59 2.95 25.93 2.91L25.93 2.91L25.93 2.91Q26.26 2.86 26.84 2.86L26.84 2.86L26.84 2.86Q28.27 2.86 29.08 2.95L29.08 2.95L29.08 2.95Q29.89 3.05 30.27 3.43L30.27 3.43L30.27 3.43Q30.32 3.54 30.37 3.63L30.37 3.63L30.37 3.63Q30.42 3.71 30.45 3.78L30.45 3.78L30.45 3.78Q30.66 4.14 30.75 4.42L30.75 4.42L30.75 4.42Q30.84 4.70 30.84 5.14L30.84 5.14L30.84 5.14Q30.91 5.33 30.91 5.63L30.91 5.63L30.91 5.63Q30.91 6.16 30.64 6.74L30.64 6.74L30.64 6.74Q30.37 7.32 29.99 7.71L29.99 7.71ZM28.27 3.71L28.27 3.71Q28.07 3.91 28.03 4.13L28.03 4.13L28.03 4.13Q27.99 4.35 27.99 4.86L27.99 4.86L27.99 4.86Q27.99 5.64 28.03 6.06L28.03 6.06L28.03 6.06Q28.07 6.47 28.27 6.86L28.27 6.86L28.27 6.86Q28.34 6.93 28.42 6.93L28.42 6.93L28.42 6.93Q28.53 6.93 28.64 6.83L28.64 6.83L28.64 6.83Q28.76 6.72 28.91 6.52L28.91 6.52L29.12 6.29L29.12 6.29Q29.32 5.73 29.42 5.31L29.42 5.31L29.42 5.31Q29.53 4.90 29.53 4.56L29.53 4.56L29.53 4.56Q29.53 4.23 29.41 4.00L29.41 4.00L29.41 4.00Q29.22 3.81 28.92 3.76L28.92 3.76L28.92 3.76Q28.62 3.71 28.27 3.71L28.27 3.71ZM29.41 15.43L29.99 14.85L29.99 14.85Q30.17 14.67 30.22 14.37L30.22 14.37L30.22 14.37Q30.27 14.07 30.27 13.72L30.27 13.72L30.27 13.72Q30.48 13.50 30.51 13.43L30.51 13.43L30.51 13.43Q30.55 13.36 30.55 13.15L30.55 13.15L30.55 13.15Q30.67 12.89 30.67 12.42L30.67 12.42L30.67 12.42Q30.67 12.22 30.60 11.49L30.60 11.49L30.60 11.49Q30.55 10.99 30.55 10.85L30.55 10.85L30.56 10.37L30.56 10.37Q30.56 10.21 30.52 10.05L30.52 10.05L30.52 10.05Q30.48 9.90 30.35 9.65L30.35 9.65L30.35 9.65Q30.35 9.65 30.36 9.63L30.36 9.63L30.36 9.63Q30.37 9.60 30.37 9.58L30.37 9.58L30.34 9.37L30.34 9.37Q30.32 9.32 30.26 9.18L30.26 9.18L30.26 9.18Q30.20 9.04 30.11 8.85L30.11 8.85L30.11 8.85Q29.69 8.43 29.20 8.21L29.20 8.21L29.20 8.21Q28.71 7.99 28.27 7.99L28.27 7.99L28.27 7.99Q28.08 8.19 28.04 8.49L28.04 8.49L28.04 8.49Q27.99 8.79 27.99 9.14L27.99 9.14L27.99 13.72L27.99 15.71L27.99 15.71Q28.55 15.71 28.88 15.66L28.88 15.66L28.88 15.66Q29.22 15.61 29.41 15.43L29.41 15.43ZM38.84 5.08L38.84 5.08Q38.77 4.98 38.71 4.82L38.71 4.82L38.71 4.82Q38.70 4.72 38.70 4.51L38.70 4.51L38.70 4.51Q38.70 4.28 38.67 4.16L38.67 4.16L38.67 4.16Q38.64 4.03 38.54 3.95L38.54 3.95L38.54 3.95Q38.26 3.79 37.97 3.65L37.97 3.65L37.97 3.65Q37.32 3.65 36.84 3.70L36.84 3.70L36.84 3.70Q36.36 3.75 35.98 3.95L35.98 3.95L35.98 3.95Q35.83 4.09 35.78 4.30L35.78 4.30L35.78 4.30Q35.73 4.52 35.73 4.90L35.73 4.90L35.73 4.90Q35.73 5.56 35.70 6.26L35.70 6.26L35.69 7.07L35.69 7.07Q35.69 7.28 35.76 7.91L35.76 7.91L35.76 7.91Q35.81 8.33 35.81 8.50L35.81 8.50L35.81 8.50Q35.81 8.83 35.69 9.09L35.69 9.09L35.69 9.09Q35.88 9.25 36.32 9.30L36.32 9.30L36.32 9.30Q36.76 9.35 37.39 9.35L37.39 9.35L37.39 9.35Q37.39 9.00 37.44 8.76L37.44 8.76L37.44 8.76Q37.49 8.51 37.69 8.51L37.69 8.51L37.69 8.51Q37.90 8.51 37.97 8.55L37.97 8.55L37.97 8.55Q38.04 8.58 38.26 8.79L38.26 8.79L38.26 8.79Q38.19 8.93 38.19 9.10L38.19 9.10L38.19 9.10Q38.18 9.17 38.18 9.34L38.18 9.34L38.18 9.34Q38.18 9.63 38.22 9.95L38.22 9.95L38.22 9.95Q38.25 10.35 38.25 10.51L38.25 10.51L38.25 10.51Q38.25 10.79 38.19 10.94L38.19 10.94L38.19 10.94Q38.12 11.09 37.97 11.09L37.97 11.09L37.97 11.09Q37.93 11.06 37.79 10.98L37.79 10.98L37.79 10.98Q37.65 10.89 37.52 10.77L37.52 10.77L37.52 10.77Q37.39 10.64 37.39 10.51L37.39 10.51L37.39 10.22L35.98 10.22L35.98 10.22Q35.83 10.67 35.83 11.41L35.83 11.41L35.83 11.41Q35.83 11.89 35.87 12.35L35.87 12.35L35.87 12.35Q35.90 12.91 35.90 13.12L35.90 13.12L35.90 13.12Q35.90 13.17 35.94 14.64L35.94 14.64L35.94 14.64Q35.98 15.26 35.98 15.65L35.98 15.65L35.98 15.65Q36.55 15.85 37.01 15.89L37.01 15.89L37.01 15.89Q37.46 15.93 38.26 15.93L38.26 15.93L38.26 15.93Q38.47 15.83 38.51 15.64L38.51 15.64L38.51 15.64Q38.56 15.51 38.56 15.23L38.56 15.23L38.56 15.23Q38.56 14.94 38.61 14.78L38.61 14.78L38.61 14.78Q38.65 14.62 38.84 14.52L38.84 14.52L38.84 14.52Q39.21 14.52 39.31 14.90L39.31 14.90L39.31 14.90Q39.41 15.29 39.41 15.93L39.41 15.93L39.41 15.93Q39.41 16.13 39.28 16.30L39.28 16.30L39.28 16.30Q39.14 16.48 38.84 16.80L38.84 16.80L37.39 16.80L37.39 16.80Q35.97 16.80 34.97 16.75L34.97 16.75L34.97 16.75Q33.96 16.70 32.83 16.51L32.83 16.51L32.83 15.93L33.98 15.93L33.98 15.93Q34.10 15.19 34.10 14.31L34.10 14.31L34.10 14.31Q34.10 13.82 34.05 12.78L34.05 12.78L34.05 12.78Q33.98 11.87 33.98 11.09L33.98 11.09L33.98 10.51L33.98 7.64L33.98 6.51L33.98 3.95L32.83 3.95L32.83 3.37L32.83 3.37Q33.42 3.22 34.59 3.08L34.59 3.08L34.59 3.08Q35.71 2.94 36.26 2.80L36.26 2.80L39.12 2.80L39.12 2.80Q39.14 2.83 39.21 2.91L39.21 2.91L39.21 2.91Q39.28 2.98 39.35 3.12L39.35 3.12L39.35 3.12Q39.41 3.25 39.41 3.37L39.41 3.37L39.41 3.37Q39.41 3.54 39.48 3.85L39.48 3.85L39.48 3.85Q39.55 4.34 39.55 4.44L39.55 4.44L39.55 4.44Q39.55 4.75 39.40 4.91L39.40 4.91L39.40 4.91Q39.24 5.08 38.84 5.08L38.84 5.08ZM44.65 3.37L44.65 3.37Q44.65 3.29 44.70 3.18L44.70 3.18L44.70 3.18Q44.76 3.07 44.95 3.07L44.95 3.07L44.95 3.07Q45.25 3.07 45.39 3.12L45.39 3.12L45.39 3.12Q45.53 3.16 45.53 3.37L45.53 3.37L45.53 3.37Q45.67 3.51 45.67 3.74L45.67 3.74L45.67 3.74Q45.67 3.91 45.58 4.21L45.58 4.21L45.58 4.21Q45.53 4.47 45.53 4.54L45.53 4.54L45.53 4.54Q45.49 4.63 45.33 5.01L45.33 5.01L45.33 5.01Q45.16 5.38 44.98 5.59L44.98 5.59L44.98 5.59Q44.79 5.80 44.58 5.80L44.58 5.80L44.58 5.80Q44.45 5.80 44.34 5.74L44.34 5.74L44.34 5.74Q44.21 5.61 44.21 5.36L44.21 5.36L44.21 5.36Q44.21 5.24 44.27 4.87L44.27 4.87L44.27 4.87Q44.34 4.38 44.34 4.26L44.34 4.26L44.34 4.26Q44.11 4.02 43.69 3.84L43.69 3.84L43.69 3.84Q43.27 3.65 42.85 3.65L42.85 3.65L42.85 3.65Q42.63 4.09 42.63 5.00L42.63 5.00L42.63 5.00Q42.63 5.91 42.85 6.36L42.85 6.36L42.85 6.36Q43.04 6.73 43.37 7.02L43.37 7.02L43.37 7.02Q43.69 7.31 44.27 7.70L44.27 7.70L44.27 7.70Q44.90 8.13 45.29 8.48L45.29 8.48L45.29 8.48Q45.68 8.82 45.96 9.31L45.96 9.31L45.96 9.31Q46.31 9.91 46.54 10.37L46.54 10.37L46.54 10.37Q46.76 10.81 46.87 11.33L46.87 11.33L46.87 11.33Q46.98 11.84 46.98 12.33L46.98 12.33L46.98 12.33Q46.98 13.17 46.85 13.76L46.85 13.76L46.85 13.76Q46.72 14.34 46.42 14.99L46.42 14.99L46.42 14.99Q46.09 15.72 45.53 16.14L45.53 16.14L45.53 16.14Q44.97 16.55 44.06 16.77L44.06 16.77L42.85 16.77L42.85 16.77Q42.48 16.77 41.95 16.37L41.95 16.37L41.95 16.37Q41.43 15.96 41.08 15.58L41.08 15.58L41.08 15.58Q40.64 14.77 40.64 13.87L40.64 13.87L40.64 13.87Q40.64 13.44 40.77 12.91L40.77 12.91L40.77 12.91Q40.61 12.91 40.46 13.06L40.46 13.06L40.46 13.06Q40.33 13.22 40.18 13.22L40.18 13.22L40.18 13.22Q39.97 13.01 39.92 12.80L39.92 12.80L39.92 12.80Q39.87 12.60 39.87 12.32L39.87 12.32L39.87 12.32Q40.35 12.15 40.98 12.05L40.98 12.05L40.98 12.05Q41.29 12.00 41.62 11.91L41.62 11.91L41.62 11.91Q41.96 11.83 42.27 11.70L42.27 11.70L42.27 11.70Q42.59 11.70 42.78 11.91L42.78 11.91L42.78 11.91Q42.98 12.12 42.98 12.43L42.98 12.43L42.98 12.43Q42.98 12.67 42.85 12.91L42.85 12.91L42.85 12.91Q42.56 12.91 42.36 12.96L42.36 12.96L42.36 12.96Q42.17 13.01 41.96 13.22L41.96 13.22L41.96 13.22Q41.65 13.52 41.65 14.17L41.65 14.17L41.65 14.17Q41.65 14.73 41.90 15.24L41.90 15.24L41.90 15.24Q42.14 15.75 42.55 15.89L42.55 15.89L42.55 15.89Q42.73 15.89 42.85 15.74L42.85 15.74L42.85 15.74Q42.87 15.72 42.95 15.65L42.95 15.65L42.95 15.65Q43.04 15.58 43.16 15.58L43.16 15.58L43.16 15.58Q44.14 15.09 44.65 14.05L44.65 14.05L44.65 14.05Q45.16 13.01 45.16 11.68L45.16 11.68L45.16 11.68Q45.16 10.81 44.95 9.93L44.95 9.93L44.95 9.93Q44.72 9.48 44.46 9.22L44.46 9.22L44.46 9.22Q44.20 8.96 43.75 8.72L43.75 8.72L43.75 8.72Q43.34 8.53 43.09 8.32L43.09 8.32L43.09 8.32Q42.84 8.12 42.55 7.83L42.55 7.83L42.55 7.83Q42.41 7.69 42.17 7.55L42.17 7.55L42.17 7.55Q41.80 7.34 41.55 7.07L41.55 7.07L41.55 7.07Q41.47 6.97 41.15 6.65L41.15 6.65L41.15 6.65Q40.82 6.33 40.64 6.03L40.64 6.03L40.64 6.03Q40.46 5.73 40.46 5.46L40.46 5.46L40.46 5.46Q40.39 5.25 40.39 4.97L40.39 4.97L40.39 4.97Q40.39 4.03 41.36 3.07L41.36 3.07L41.36 3.07Q41.47 3.07 41.59 3.02L41.59 3.02L41.59 3.02Q41.72 2.97 41.76 2.95L41.76 2.95L41.76 2.95Q42.15 2.76 42.55 2.76L42.55 2.76L42.55 2.76Q42.81 2.76 42.99 2.79L42.99 2.79L42.99 2.79Q43.18 2.83 43.44 2.91L43.44 2.91L44.06 3.07L44.06 3.07Q44.09 3.09 44.17 3.16L44.17 3.16L44.17 3.16Q44.25 3.23 44.38 3.30L44.38 3.30L44.38 3.30Q44.51 3.37 44.65 3.37L44.65 3.37ZM54.33 15.92L55.51 15.92L55.51 15.92Q55.68 15.92 55.82 15.78L55.82 15.78L55.82 15.78Q55.96 15.64 56.11 15.64L56.11 15.64L56.11 12.35L56.11 12.35Q56.11 11.62 56.04 10.93L56.04 10.93L56.04 10.93Q55.96 10.25 55.94 10.12L55.94 10.12L55.94 10.12Q55.82 9.21 55.82 8.78L55.82 8.78L55.82 8.78Q55.82 7.59 55.77 6.85L55.77 6.85L55.77 6.85Q55.72 6.10 55.51 5.52L55.51 5.52L55.51 4.31L55.51 4.31Q55.33 4.31 54.99 4.42L54.99 4.42L54.99 4.42Q54.71 4.51 54.61 4.51L54.61 4.51L54.61 4.51Q54.33 4.51 54.33 4.00L54.33 4.00L54.33 4.00Q54.33 3.89 54.40 3.83L54.40 3.83L54.40 3.83Q54.46 3.77 54.60 3.67L54.60 3.67L54.60 3.67Q54.82 3.54 54.94 3.43L54.94 3.43L55.23 3.12L55.23 3.12Q55.62 2.93 56.02 2.88L56.02 2.88L56.02 2.88Q56.42 2.83 57.02 2.83L57.02 2.83L57.02 2.83Q57.23 2.83 57.51 2.80L57.51 2.80L57.90 2.79L57.90 2.79Q58.18 2.79 58.53 2.84L58.53 2.84L58.53 2.84Q58.56 2.83 58.64 2.81L58.64 2.81L58.64 2.81Q58.72 2.79 58.80 2.83L58.80 2.83L58.80 2.83Q58.95 2.97 59.40 3.28L59.40 3.28L59.40 3.28Q59.49 3.35 59.68 3.48L59.68 3.48L59.68 3.48Q59.88 3.61 59.99 3.72L59.99 3.72L59.99 3.72Q60.40 3.91 60.65 4.27L60.65 4.27L60.65 4.27Q60.90 4.63 61.18 5.21L61.18 5.21L61.18 5.21Q61.56 5.98 61.76 6.55L61.76 6.55L61.76 6.55Q61.96 7.13 62.06 7.91L62.06 7.91L62.10 8.26L62.10 8.26Q62.12 8.36 62.17 8.83L62.17 8.83L62.17 8.83Q62.23 9.31 62.23 9.76L62.23 9.76L62.23 9.76Q62.23 10.50 62.06 11.16L62.06 11.16L62.06 11.16Q62.06 11.98 61.75 12.76L61.75 12.76L61.75 12.76Q61.45 13.54 61.06 14.13L61.06 14.13L61.06 14.13Q60.68 14.71 59.99 15.64L59.99 15.64L59.99 15.64Q59.84 15.71 59.53 15.90L59.53 15.90L59.53 15.90Q59.02 16.20 58.60 16.36L58.60 16.36L58.60 16.36Q58.18 16.52 57.60 16.52L57.60 16.52L57.02 16.52L57.02 16.52Q56.63 16.72 56.11 16.77L56.11 16.77L56.11 16.77Q55.59 16.81 54.94 16.81L54.94 16.81L54.94 16.81Q54.66 16.53 54.50 16.32L54.50 16.32L54.50 16.32Q54.33 16.11 54.33 15.92L54.33 15.92ZM57.60 3.72L57.60 3.72Q57.40 3.92 57.40 4.56L57.40 4.56L57.41 5.21L57.41 5.21Q57.41 5.91 57.46 6.45L57.46 6.45L57.46 6.45Q57.48 7.04 57.48 7.29L57.48 7.29L57.48 7.29Q57.48 7.56 57.54 8.18L57.54 8.18L57.54 8.18Q57.60 8.88 57.60 9.38L57.60 9.38L57.60 12.35L57.60 12.35Q57.60 12.63 57.67 12.92L57.67 12.92L57.67 12.92Q57.74 13.20 57.75 13.26L57.75 13.26L57.75 13.26Q57.90 13.80 57.90 14.13L57.90 14.13L57.90 14.13Q57.90 14.39 57.82 14.70L57.82 14.70L57.82 14.70Q57.76 14.95 57.76 15.02L57.76 15.02L57.76 15.02Q57.76 15.19 57.90 15.33L57.90 15.33L57.90 15.33Q58.04 15.33 58.35 15.19L58.35 15.19L58.35 15.19Q58.63 15.04 58.80 15.04L58.80 15.04L58.80 15.04Q58.80 14.90 58.87 14.83L58.87 14.83L58.87 14.83Q58.94 14.76 59.01 14.74L59.01 14.74L59.01 14.74Q59.08 14.73 59.11 14.73L59.11 14.73L59.11 14.73Q59.29 14.73 59.34 14.62L59.34 14.62L59.34 14.62Q59.39 14.50 59.39 14.43L59.39 14.43L59.39 14.43Q59.79 13.85 59.89 13.10L59.89 13.10L59.89 13.10Q59.99 12.35 59.99 11.16L59.99 11.16L59.99 11.16Q59.99 10.99 60.05 10.54L60.05 10.54L60.05 10.54Q60.12 9.84 60.12 9.66L60.12 9.66L60.12 9.66Q60.12 9.16 59.99 8.78L59.99 8.78L59.99 7.88L59.99 7.88Q59.93 7.59 59.81 6.82L59.81 6.82L59.81 6.82Q59.63 5.71 59.44 5.09L59.44 5.09L59.44 5.09Q59.25 4.47 58.80 4.00L58.80 4.00L58.80 4.00Q58.60 3.81 58.37 3.77L58.37 3.77L58.37 3.77Q58.13 3.72 57.60 3.72L57.60 3.72ZM68.94 5.08L68.94 5.08Q68.87 4.98 68.81 4.82L68.81 4.82L68.81 4.82Q68.80 4.72 68.80 4.51L68.80 4.51L68.80 4.51Q68.80 4.28 68.77 4.16L68.77 4.16L68.77 4.16Q68.74 4.03 68.64 3.95L68.64 3.95L68.64 3.95Q68.36 3.79 68.07 3.65L68.07 3.65L68.07 3.65Q67.42 3.65 66.94 3.70L66.94 3.70L66.94 3.70Q66.46 3.75 66.08 3.95L66.08 3.95L66.08 3.95Q65.93 4.09 65.88 4.30L65.88 4.30L65.88 4.30Q65.83 4.52 65.83 4.90L65.83 4.90L65.83 4.90Q65.83 5.56 65.80 6.26L65.80 6.26L65.79 7.07L65.79 7.07Q65.79 7.28 65.86 7.91L65.86 7.91L65.86 7.91Q65.91 8.33 65.91 8.50L65.91 8.50L65.91 8.50Q65.91 8.83 65.79 9.09L65.79 9.09L65.79 9.09Q65.98 9.25 66.42 9.30L66.42 9.30L66.42 9.30Q66.86 9.35 67.49 9.35L67.49 9.35L67.49 9.35Q67.49 9.00 67.54 8.76L67.54 8.76L67.54 8.76Q67.59 8.51 67.79 8.51L67.79 8.51L67.79 8.51Q68.00 8.51 68.07 8.55L68.07 8.55L68.07 8.55Q68.14 8.58 68.36 8.79L68.36 8.79L68.36 8.79Q68.29 8.93 68.29 9.10L68.29 9.10L68.29 9.10Q68.28 9.17 68.28 9.34L68.28 9.34L68.28 9.34Q68.28 9.63 68.32 9.95L68.32 9.95L68.32 9.95Q68.35 10.35 68.35 10.51L68.35 10.51L68.35 10.51Q68.35 10.79 68.28 10.94L68.28 10.94L68.28 10.94Q68.22 11.09 68.07 11.09L68.07 11.09L68.07 11.09Q68.03 11.06 67.89 10.98L67.89 10.98L67.89 10.98Q67.75 10.89 67.62 10.77L67.62 10.77L67.62 10.77Q67.49 10.64 67.49 10.51L67.49 10.51L67.49 10.22L66.08 10.22L66.08 10.22Q65.93 10.67 65.93 11.41L65.93 11.41L65.93 11.41Q65.93 11.89 65.97 12.35L65.97 12.35L65.97 12.35Q66.00 12.91 66.00 13.12L66.00 13.12L66.00 13.12Q66.00 13.17 66.04 14.64L66.04 14.64L66.04 14.64Q66.08 15.26 66.08 15.65L66.08 15.65L66.08 15.65Q66.65 15.85 67.11 15.89L67.11 15.89L67.11 15.89Q67.56 15.93 68.36 15.93L68.36 15.93L68.36 15.93Q68.57 15.83 68.61 15.64L68.61 15.64L68.61 15.64Q68.66 15.51 68.66 15.23L68.66 15.23L68.66 15.23Q68.66 14.94 68.70 14.78L68.70 14.78L68.70 14.78Q68.75 14.62 68.94 14.52L68.94 14.52L68.94 14.52Q69.31 14.52 69.41 14.90L69.41 14.90L69.41 14.90Q69.51 15.29 69.51 15.93L69.51 15.93L69.51 15.93Q69.51 16.13 69.38 16.30L69.38 16.30L69.38 16.30Q69.24 16.48 68.94 16.80L68.94 16.80L67.49 16.80L67.49 16.80Q66.07 16.80 65.06 16.75L65.06 16.75L65.06 16.75Q64.06 16.70 62.93 16.51L62.93 16.51L62.93 15.93L64.08 15.93L64.08 15.93Q64.20 15.19 64.20 14.31L64.20 14.31L64.20 14.31Q64.20 13.82 64.15 12.78L64.15 12.78L64.15 12.78Q64.08 11.87 64.08 11.09L64.08 11.09L64.08 10.51L64.08 7.64L64.08 6.51L64.08 3.95L62.93 3.95L62.93 3.37L62.93 3.37Q63.52 3.22 64.69 3.08L64.69 3.08L64.69 3.08Q65.81 2.94 66.36 2.80L66.36 2.80L69.22 2.80L69.22 2.80Q69.24 2.83 69.31 2.91L69.31 2.91L69.31 2.91Q69.38 2.98 69.45 3.12L69.45 3.12L69.45 3.12Q69.51 3.25 69.51 3.37L69.51 3.37L69.51 3.37Q69.51 3.54 69.58 3.85L69.58 3.85L69.58 3.85Q69.65 4.34 69.65 4.44L69.65 4.44L69.65 4.44Q69.65 4.75 69.50 4.91L69.50 4.91L69.50 4.91Q69.34 5.08 68.94 5.08L68.94 5.08ZM75.73 2.88L75.73 2.88Q75.96 3.01 76.33 3.01L76.33 3.01L76.33 3.01Q76.65 3.01 77.04 2.94L77.04 2.94L77.04 2.94Q77.46 2.88 77.63 2.88L77.63 2.88L77.63 2.88Q77.84 3.09 77.94 3.24L77.94 3.24L77.94 3.24Q78.04 3.39 78.04 3.58L78.04 3.58L78.04 3.58Q78.04 3.78 77.92 4.00L77.92 4.00L77.36 4.00L77.36 4.00Q77.24 4.24 77.17 4.48L77.17 4.48L77.17 4.48Q77.11 4.72 77.03 5.14L77.03 5.14L77.03 5.14Q76.96 5.52 76.86 5.92L76.86 5.92L76.86 5.92Q76.58 6.97 76.30 8.21L76.30 8.21L76.30 8.21Q76.02 9.45 75.78 10.60L75.78 10.60L75.78 10.60Q75.33 12.68 75.05 13.90L75.05 13.90L75.05 13.90Q74.76 15.11 74.35 16.35L74.35 16.35L74.35 16.35Q74.16 16.65 73.99 16.65L73.99 16.65L73.99 16.65Q73.81 16.65 73.66 16.35L73.66 16.35L73.66 16.35Q73.51 16.06 73.35 15.53L73.35 15.53L73.35 15.53Q73.29 15.40 73.25 15.25L73.25 15.25L73.25 15.25Q72.98 14.71 72.98 13.87L72.98 13.87L72.98 13.87Q72.79 13.13 72.24 10.91L72.24 10.91L72.16 10.58L72.16 10.58Q71.86 9.73 71.68 8.82L71.68 8.82L71.68 8.82Q71.50 7.91 71.30 6.69L71.30 6.69L71.13 5.64L71.13 5.64Q70.91 4.40 70.91 4.09L70.91 4.09L70.91 4.09Q70.91 3.91 70.63 3.91L70.63 3.91L70.25 3.92L70.25 3.92Q70.25 3.79 70.22 3.51L70.22 3.51L70.22 3.51Q70.18 3.30 70.18 3.11L70.18 3.11L70.18 3.11Q70.18 2.93 70.55 2.93L70.55 2.93L70.95 2.94L70.95 2.94Q72.37 2.94 72.98 2.90L72.98 2.90L72.98 2.90Q73.23 2.88 73.36 3.02L73.36 3.02L73.36 3.02Q73.49 3.16 73.49 3.39L73.49 3.39L73.49 3.39Q73.49 3.71 73.26 3.99L73.26 3.99L73.26 3.99Q73.04 4.27 72.69 4.27L72.69 4.27L72.69 4.27Q72.69 4.96 72.81 5.76L72.81 5.76L72.81 5.76Q72.94 6.57 73.18 7.71L73.18 7.71L73.18 7.71Q73.19 7.85 73.25 8.11L73.25 8.11L73.25 8.11Q73.53 9.81 73.75 10.84L73.75 10.84L73.75 10.84Q73.98 11.87 74.35 12.78L74.35 12.78L74.35 12.78Q74.37 12.59 74.58 11.89L74.58 11.89L74.58 11.89Q74.89 10.91 74.89 10.58L74.89 10.58L74.89 10.58Q74.98 10.11 75.14 9.53L75.14 9.53L75.14 9.53Q75.31 8.95 75.38 8.69L75.38 8.69L75.38 8.69Q75.73 7.42 75.93 6.50L75.93 6.50L75.93 6.50Q76.13 5.59 76.26 4.55L76.26 4.55L76.26 4.55Q76.26 4.45 76.32 4.35L76.32 4.35L76.32 4.35Q76.38 4.24 76.38 4.20L76.38 4.20L76.38 4.20Q76.38 4.12 76.26 4.00L76.26 4.00L76.26 4.00Q76.16 3.91 75.91 3.77L75.91 3.77L75.91 3.77Q75.66 3.64 75.54 3.53L75.54 3.53L75.54 3.53Q75.43 3.42 75.43 3.18L75.43 3.18L75.43 3.18Q75.46 3.18 75.53 3.16L75.53 3.16L75.53 3.16Q75.60 3.15 75.66 3.08L75.66 3.08L75.66 3.08Q75.73 3.01 75.73 2.88L75.73 2.88ZM84.60 5.08L84.60 5.08Q84.53 4.98 84.48 4.82L84.48 4.82L84.48 4.82Q84.46 4.72 84.46 4.51L84.46 4.51L84.46 4.51Q84.46 4.28 84.43 4.16L84.43 4.16L84.43 4.16Q84.41 4.03 84.31 3.95L84.31 3.95L84.31 3.95Q84.03 3.79 83.73 3.65L83.73 3.65L83.73 3.65Q83.09 3.65 82.61 3.70L82.61 3.70L82.61 3.70Q82.12 3.75 81.75 3.95L81.75 3.95L81.75 3.95Q81.59 4.09 81.54 4.30L81.54 4.30L81.54 4.30Q81.49 4.52 81.49 4.90L81.49 4.90L81.49 4.90Q81.49 5.56 81.47 6.26L81.47 6.26L81.45 7.07L81.45 7.07Q81.45 7.28 81.52 7.91L81.52 7.91L81.52 7.91Q81.58 8.33 81.58 8.50L81.58 8.50L81.58 8.50Q81.58 8.83 81.45 9.09L81.45 9.09L81.45 9.09Q81.65 9.25 82.09 9.30L82.09 9.30L82.09 9.30Q82.53 9.35 83.16 9.35L83.16 9.35L83.16 9.35Q83.16 9.00 83.21 8.76L83.21 8.76L83.21 8.76Q83.26 8.51 83.45 8.51L83.45 8.51L83.45 8.51Q83.66 8.51 83.73 8.55L83.73 8.55L83.73 8.55Q83.80 8.58 84.03 8.79L84.03 8.79L84.03 8.79Q83.96 8.93 83.96 9.10L83.96 9.10L83.96 9.10Q83.94 9.17 83.94 9.34L83.94 9.34L83.94 9.34Q83.94 9.63 83.99 9.95L83.99 9.95L83.99 9.95Q84.01 10.35 84.01 10.51L84.01 10.51L84.01 10.51Q84.01 10.79 83.95 10.94L83.95 10.94L83.95 10.94Q83.89 11.09 83.73 11.09L83.73 11.09L83.73 11.09Q83.69 11.06 83.55 10.98L83.55 10.98L83.55 10.98Q83.41 10.89 83.29 10.77L83.29 10.77L83.29 10.77Q83.16 10.64 83.16 10.51L83.16 10.51L83.16 10.22L81.75 10.22L81.75 10.22Q81.59 10.67 81.59 11.41L81.59 11.41L81.59 11.41Q81.59 11.89 81.63 12.35L81.63 12.35L81.63 12.35Q81.66 12.91 81.66 13.12L81.66 13.12L81.66 13.12Q81.66 13.17 81.70 14.64L81.70 14.64L81.70 14.64Q81.75 15.26 81.75 15.65L81.75 15.65L81.75 15.65Q82.32 15.85 82.77 15.89L82.77 15.89L82.77 15.89Q83.23 15.93 84.03 15.93L84.03 15.93L84.03 15.93Q84.24 15.83 84.28 15.64L84.28 15.64L84.28 15.64Q84.32 15.51 84.32 15.23L84.32 15.23L84.32 15.23Q84.32 14.94 84.37 14.78L84.37 14.78L84.37 14.78Q84.42 14.62 84.60 14.52L84.60 14.52L84.60 14.52Q84.98 14.52 85.08 14.90L85.08 14.90L85.08 14.90Q85.18 15.29 85.18 15.93L85.18 15.93L85.18 15.93Q85.18 16.13 85.04 16.30L85.04 16.30L85.04 16.30Q84.91 16.48 84.60 16.80L84.60 16.80L83.16 16.80L83.16 16.80Q81.73 16.80 80.73 16.75L80.73 16.75L80.73 16.75Q79.73 16.70 78.60 16.51L78.60 16.51L78.60 15.93L79.74 15.93L79.74 15.93Q79.87 15.19 79.87 14.31L79.87 14.31L79.87 14.31Q79.87 13.82 79.81 12.78L79.81 12.78L79.81 12.78Q79.74 11.87 79.74 11.09L79.74 11.09L79.74 10.51L79.74 7.64L79.74 6.51L79.74 3.95L78.60 3.95L78.60 3.37L78.60 3.37Q79.18 3.22 80.36 3.08L80.36 3.08L80.36 3.08Q81.48 2.94 82.03 2.80L82.03 2.80L84.88 2.80L84.88 2.80Q84.91 2.83 84.98 2.91L84.98 2.91L84.98 2.91Q85.05 2.98 85.11 3.12L85.11 3.12L85.11 3.12Q85.18 3.25 85.18 3.37L85.18 3.37L85.18 3.37Q85.18 3.54 85.25 3.85L85.25 3.85L85.25 3.85Q85.32 4.34 85.32 4.44L85.32 4.44L85.32 4.44Q85.32 4.75 85.16 4.91L85.16 4.91L85.16 4.91Q85.01 5.08 84.60 5.08L84.60 5.08ZM89.61 3.22L89.61 3.22Q89.46 3.54 89.22 3.78L89.22 3.78L89.22 3.78Q89.12 3.88 89.09 3.93L89.09 3.93L89.09 3.93Q89.05 3.99 89.05 4.09L89.05 4.09L89.05 4.09Q89.05 5.40 88.97 6.84L88.97 6.84L88.97 6.84Q88.89 8.27 88.87 8.55L88.87 8.55L88.87 8.55Q88.77 10.05 88.72 11.07L88.72 11.07L88.72 11.07Q88.68 12.08 88.68 13.13L88.68 13.13L88.68 13.13Q88.68 14.45 88.75 15.43L88.75 15.43L88.75 15.48L88.75 15.48Q88.75 15.65 88.79 15.67L88.79 15.67L88.79 15.67Q88.83 15.69 89.05 15.71L89.05 15.71L89.05 15.71Q89.25 15.72 89.37 15.71L89.37 15.71L89.37 15.71Q89.49 15.71 89.61 15.71L89.61 15.71L89.61 15.71Q89.66 15.71 89.80 15.71L89.80 15.71L89.80 15.71Q89.95 15.72 90.19 15.71L90.19 15.71L90.50 15.71L90.50 13.97L90.50 12.81L90.50 12.81Q90.62 12.68 90.78 12.68L90.78 12.68L90.78 12.68Q90.89 12.68 90.97 12.73L90.97 12.73L90.97 12.73Q91.06 12.78 91.08 12.81L91.08 12.81L91.08 12.81Q91.43 13.16 91.43 14.01L91.43 14.01L91.43 14.01Q91.43 14.38 91.39 14.76L91.39 14.76L91.39 14.76Q91.36 15.23 91.36 15.43L91.36 15.43L91.36 15.43Q91.36 15.51 91.42 15.74L91.42 15.74L91.42 15.74Q91.49 16.13 91.49 16.21L91.49 16.21L91.49 16.21Q91.49 16.46 91.36 16.59L91.36 16.59L91.36 16.59Q90.72 16.70 90.06 16.72L90.06 16.72L90.06 16.72Q89.63 16.73 88.79 16.73L88.79 16.73L88.79 16.73Q87.96 16.73 87.44 16.75L87.44 16.75L87.44 16.75Q86.93 16.77 86.44 16.87L86.44 16.87L86.44 16.87Q86.28 16.73 86.13 16.65L86.13 16.65L86.13 16.65Q85.97 16.56 85.91 16.49L85.91 16.49L85.91 16.49Q85.85 16.42 85.85 16.28L85.85 16.28L85.85 16.28Q85.85 16.10 85.99 16.05L85.99 16.05L85.99 16.05Q86.14 16.00 86.44 16.00L86.44 16.00L86.44 16.00Q86.63 15.81 86.67 15.58L86.67 15.58L86.67 15.58Q86.72 15.36 86.72 14.84L86.72 14.84L86.72 14.84Q86.91 13.89 86.96 12.69L86.96 12.69L86.96 12.69Q87.01 11.49 87.01 9.91L87.01 9.91L87.01 9.60L87.01 7.01L87.01 7.01Q87.01 6.05 86.96 5.36L86.96 5.36L86.96 5.36Q86.91 4.68 86.72 4.09L86.72 4.09L86.72 4.09Q86.72 3.96 86.66 3.91L86.66 3.91L86.66 3.91Q86.60 3.85 86.45 3.75L86.45 3.75L86.45 3.75Q86.25 3.64 86.13 3.53L86.13 3.53L86.13 2.94L86.44 2.94L86.44 2.94Q86.88 2.94 87.54 2.87L87.54 2.87L87.54 2.87Q87.70 2.86 88.09 2.83L88.09 2.83L88.09 2.83Q88.49 2.80 88.82 2.80L88.82 2.80L88.82 2.80Q89.21 2.80 89.39 2.83L89.39 2.83L89.39 2.83Q89.56 2.84 89.59 2.88L89.59 2.88L89.59 2.88Q89.63 2.93 89.62 3.04L89.62 3.04L89.62 3.04Q89.61 3.15 89.61 3.22L89.61 3.22ZM98.60 15.46L98.60 15.46Q98.46 15.71 98.24 15.95L98.24 15.95L98.24 15.95Q98.01 16.18 97.82 16.31L97.82 16.31L97.82 16.31Q97.01 16.83 96.10 16.83L96.10 16.83L96.10 16.83Q95.19 16.83 94.41 16.34L94.41 16.34L94.41 16.34Q93.63 15.86 93.25 15.16L93.25 15.16L93.25 15.16Q92.74 14.18 92.39 13.15L92.39 13.15L92.39 13.15Q92.20 12.40 92.15 11.64L92.15 11.64L92.15 11.64Q92.11 10.88 92.11 9.73L92.11 9.73L92.11 9.73Q92.11 9.55 92.08 9.21L92.08 9.21L92.08 9.21Q92.05 8.85 92.05 8.67L92.05 8.67L92.05 8.67Q92.05 8.34 92.11 8.01L92.11 8.01L92.11 8.01Q92.12 7.92 92.19 7.55L92.19 7.55L92.19 7.55Q92.26 7.17 92.26 6.92L92.26 6.92L92.26 6.92Q92.29 6.78 92.36 6.38L92.36 6.38L92.36 6.38Q92.41 6.01 92.48 5.78L92.48 5.78L92.48 5.78Q92.54 5.56 92.68 5.43L92.68 5.43L92.68 5.43Q92.83 5.22 93.14 4.75L93.14 4.75L93.14 4.75Q93.56 4.10 93.86 3.74L93.86 3.74L93.86 3.74Q94.16 3.37 94.62 3.11L94.62 3.11L94.62 3.11Q95.07 2.84 95.69 2.84L95.69 2.84L95.69 2.84Q95.97 2.84 96.12 2.87L96.12 2.87L96.12 2.87Q96.96 2.87 97.46 3.12L97.46 3.12L97.46 3.12Q97.96 3.37 98.39 4.02L98.39 4.02L98.39 4.02Q99.05 4.45 99.50 5.36L99.50 5.36L99.50 5.36Q99.96 6.27 100.06 7.36L100.06 7.36L100.06 7.36Q100.11 7.94 100.11 8.88L100.11 8.88L100.11 9.49L100.11 9.49Q100.11 10.92 99.88 11.91L99.88 11.91L99.88 11.91Q99.46 13.90 98.60 15.46L98.60 15.46ZM97.36 15.26L97.36 15.26Q97.54 14.80 97.77 14.08L97.77 14.08L97.77 14.08Q98.00 13.37 98.11 12.88L98.11 12.88L98.11 12.88Q98.29 12.31 98.34 11.73L98.34 11.73L98.34 11.73Q98.39 11.16 98.39 10.30L98.39 10.30L98.39 10.30Q98.39 10.01 98.45 9.56L98.45 9.56L98.45 9.56Q98.45 9.48 98.47 9.26L98.47 9.26L98.47 9.26Q98.49 9.04 98.49 8.85L98.49 8.85L98.49 8.85Q98.49 8.65 98.48 8.39L98.48 8.39L98.48 8.39Q98.46 8.13 98.45 7.99L98.45 7.99L98.45 7.99Q98.39 7.43 98.39 7.15L98.39 7.15L98.39 7.15Q98.25 6.87 98.11 6.31L98.11 6.31L98.11 6.31Q97.97 5.73 97.82 5.43L97.82 5.43L97.66 5.10L97.66 5.10Q97.41 4.55 97.22 4.24L97.22 4.24L97.22 4.24Q97.02 3.93 96.71 3.78L96.71 3.78L96.71 3.78Q96.43 3.78 96.15 3.75L96.15 3.75L96.15 3.75Q95.84 3.72 95.55 3.72L95.55 3.72L95.55 3.72Q95.13 4.14 94.88 4.60L94.88 4.60L94.88 4.60Q94.63 5.05 94.40 5.71L94.40 5.71L94.40 5.71Q94.21 6.09 94.16 6.48L94.16 6.48L94.16 6.48Q94.11 6.86 94.11 7.43L94.11 7.43L94.11 7.43Q94.00 8.33 94.00 9.42L94.00 9.42L94.00 9.42Q94.00 11.40 94.40 13.72L94.40 13.72L94.40 13.72Q94.50 13.92 94.56 14.14L94.56 14.14L94.56 14.14Q94.63 14.36 94.65 14.43L94.65 14.43L94.65 14.43Q94.74 14.73 94.80 14.89L94.80 14.89L94.80 14.89Q94.86 15.05 94.98 15.16L94.98 15.16L94.98 15.16Q95.09 15.16 95.12 15.20L95.12 15.20L95.12 15.20Q95.16 15.25 95.19 15.39L95.19 15.39L95.19 15.39Q95.21 15.53 95.30 15.61L95.30 15.61L95.30 15.61Q95.52 15.83 96.03 15.83L96.03 15.83L96.03 15.83Q96.46 15.83 96.86 15.67L96.86 15.67L96.86 15.67Q97.26 15.51 97.36 15.26L97.36 15.26ZM103.88 15.72L103.88 15.72Q104.37 15.72 104.68 15.84L104.68 15.84L104.68 15.84Q104.99 15.96 104.99 16.18L104.99 16.18L104.99 16.18Q104.99 16.37 104.76 16.60L104.76 16.60L104.76 16.60Q104.40 16.60 103.38 16.67L103.38 16.67L103.38 16.67Q102.65 16.73 102.34 16.73L102.34 16.73L102.34 16.73Q101.74 16.73 101.23 16.60L101.23 16.60L101.23 16.60Q101.21 16.58 101.14 16.49L101.14 16.49L101.14 16.49Q101.07 16.41 101.00 16.28L101.00 16.28L101.00 16.28Q100.93 16.16 100.93 16.02L100.93 16.02L100.93 16.02Q101.15 15.79 101.26 15.76L101.26 15.76L101.26 15.76Q101.37 15.72 101.81 15.72L101.81 15.72L101.81 15.72Q101.98 15.57 101.98 15.16L101.98 15.16L101.98 15.16Q101.98 15.01 101.95 14.70L101.95 14.70L101.95 14.70Q101.92 14.42 101.92 14.31L101.92 14.31L101.92 13.87L101.92 13.87Q101.92 12.56 101.96 11.45L101.96 11.45L101.96 11.45Q101.99 10.14 101.99 9.51L101.99 9.51L101.99 9.51Q101.99 9.14 102.00 8.95L102.00 8.95L102.02 8.12L102.02 8.12Q102.02 7.56 101.99 7.25L101.99 7.25L101.99 7.25Q101.96 6.89 101.96 6.78L101.96 6.78L101.96 6.72L101.96 6.72Q101.96 6.43 101.98 6.24L101.98 6.24L101.98 6.24Q102.00 5.61 101.99 5.03L101.99 5.03L102.00 4.58L102.00 4.58Q102.00 4.38 101.96 4.26L101.96 4.26L101.96 4.26Q101.92 4.14 101.79 4.10L101.79 4.10L101.79 4.10Q101.64 4.03 101.42 4.03L101.42 4.03L101.42 4.03Q101.26 4.02 101.17 3.99L101.17 3.99L101.17 3.99Q101.08 3.96 100.95 3.85L100.95 3.85L100.95 3.85Q100.67 3.70 100.67 3.54L100.67 3.54L100.67 3.54Q100.67 3.44 100.76 3.35L100.76 3.35L100.76 3.35Q100.84 3.25 100.96 3.14L100.96 3.14L100.96 3.14Q101.08 3.04 101.15 2.98L101.15 2.98L101.15 2.98Q102.23 2.79 103.82 2.79L103.82 2.79L105.34 2.80L105.34 2.80Q105.45 2.80 105.52 2.79L105.52 2.79L105.52 2.79Q105.60 2.77 105.66 2.77L105.66 2.77L105.66 2.77Q105.80 2.77 105.94 2.80L105.94 2.80L105.94 2.80Q106.75 2.93 107.39 3.88L107.39 3.88L107.39 3.88Q108.04 4.84 108.28 6.03L108.28 6.03L108.28 6.03Q108.28 6.92 108.23 7.45L108.23 7.45L108.23 7.45Q108.18 7.98 107.98 8.39L107.98 8.39L107.98 8.39Q107.83 8.85 107.50 9.23L107.50 9.23L107.50 9.23Q107.17 9.60 106.64 10.05L106.64 10.05L106.64 10.05Q106.22 10.43 106.22 10.43L106.22 10.43L106.22 10.43Q105.81 10.64 105.40 10.69L105.40 10.69L105.40 10.69Q104.99 10.74 104.17 10.74L104.17 10.74L104.17 10.74Q104.15 10.74 104.08 10.75L104.08 10.75L104.08 10.75Q104.02 10.77 103.95 10.84L103.95 10.84L103.95 10.84Q103.88 10.91 103.88 11.03L103.88 11.03L103.88 11.03Q103.87 11.16 103.87 11.44L103.87 11.44L103.87 11.44Q103.88 11.72 103.88 11.87L103.88 11.87L103.88 12.19L103.88 12.19Q103.88 12.71 103.81 13.37L103.81 13.37L103.81 13.37Q103.80 13.52 103.77 13.89L103.77 13.89L103.77 13.89Q103.74 14.25 103.74 14.55L103.74 14.55L103.74 14.55Q103.74 15.16 103.88 15.72L103.88 15.72ZM103.88 8.09L103.88 9.55L103.88 9.55Q104.01 9.69 104.20 9.76L104.20 9.76L104.20 9.76Q104.40 9.83 104.61 9.83L104.61 9.83L104.61 9.83Q104.85 9.83 105.01 9.73L105.01 9.73L105.01 9.73Q105.43 9.46 105.77 9.01L105.77 9.01L105.77 9.01Q106.11 8.55 106.22 8.09L106.22 8.09L106.22 8.09Q106.25 7.95 106.32 7.67L106.32 7.67L106.32 7.67Q106.40 7.38 106.41 7.09L106.41 7.09L106.41 7.09Q106.43 6.80 106.43 6.38L106.43 6.38L106.43 6.38Q106.43 5.74 106.29 5.09L106.29 5.09L106.29 5.09Q106.15 4.44 105.94 3.99L105.94 3.99L105.94 3.99Q105.83 3.99 105.70 3.94L105.70 3.94L105.70 3.94Q105.57 3.89 105.53 3.88L105.53 3.88L105.53 3.88Q105.14 3.68 104.76 3.68L104.76 3.68L103.88 3.68L103.88 3.68Q103.74 4.38 103.74 5.15L103.74 5.15L103.74 5.15Q103.74 5.53 103.77 5.99L103.77 5.99L103.77 5.99Q103.80 6.45 103.81 6.64L103.81 6.64L103.81 6.64Q103.88 7.45 103.88 8.09L103.88 8.09ZM115.09 10.33L115.09 10.33Q115.26 9.81 115.37 9.29L115.37 9.29L115.37 9.29Q115.49 8.76 115.56 8.31L115.56 8.31L115.56 8.31Q115.64 7.85 115.67 7.71L115.67 7.71L115.67 7.71Q115.74 7.35 115.92 6.69L115.92 6.69L116.19 5.64L116.31 5.18L116.31 5.18Q116.42 4.75 116.48 4.49L116.48 4.49L116.48 4.49Q116.54 4.24 116.54 3.96L116.54 3.96L116.54 3.96Q116.54 3.54 116.90 3.19L116.90 3.19L116.90 3.19Q117.26 2.83 117.70 2.83L117.70 2.83L119.42 2.83L119.42 2.83Q119.55 2.83 119.61 2.89L119.61 2.89L119.61 2.89Q119.67 2.95 119.77 3.09L119.77 3.09L119.77 3.09Q119.91 3.30 120.01 3.40L120.01 3.40L120.01 3.40Q119.81 3.60 119.65 3.70L119.65 3.70L119.65 3.70Q119.49 3.81 119.28 3.81L119.28 3.81L119.28 3.81Q119.07 3.81 118.85 3.70L118.85 3.70L118.85 3.70Q118.72 4.06 118.72 4.48L118.72 4.48L118.72 4.48Q118.72 4.70 118.78 5.18L118.78 5.18L118.78 5.18Q118.85 5.60 118.85 5.99L118.85 5.99L118.85 7.15L118.85 8.60L118.85 10.91L118.83 11.73L118.83 11.73Q118.82 11.93 118.82 12.31L118.82 12.31L118.82 12.31Q118.82 12.71 118.85 12.92L118.85 12.92L118.85 12.92Q118.90 13.44 118.90 14.01L118.90 14.01L118.90 14.01Q118.90 14.38 118.87 14.97L118.87 14.97L118.87 14.97Q118.85 15.55 118.85 15.81L118.85 15.81L118.85 15.81Q119.31 15.81 119.67 16.04L119.67 16.04L119.67 16.04Q120.04 16.28 120.04 16.53L120.04 16.53L120.04 16.53Q120.04 16.73 119.83 16.83L119.83 16.83L119.83 16.83Q119.64 16.83 119.52 16.79L119.52 16.79L119.52 16.79Q119.49 16.79 119.41 16.77L119.41 16.77L119.41 16.77Q119.32 16.74 119.21 16.74L119.21 16.74L119.21 16.74Q119.15 16.74 118.90 16.79L118.90 16.79L118.90 16.79Q118.73 16.84 118.58 16.84L118.58 16.84L118.08 16.74L118.08 16.74Q118.16 16.70 117.99 16.73L117.99 16.73L117.99 16.73Q117.82 16.76 117.60 16.79L117.60 16.79L117.60 16.79Q117.38 16.83 117.11 16.83L117.11 16.83L117.11 16.83Q117.11 16.73 117.07 16.69L117.07 16.69L117.07 16.69Q117.04 16.65 116.93 16.59L116.93 16.59L116.93 16.59Q116.83 16.53 116.83 16.39L116.83 16.39L116.83 16.39Q116.83 16.28 116.92 16.22L116.92 16.22L116.92 16.22Q117.01 16.16 117.22 16.07L117.22 16.07L117.22 16.07Q117.59 15.92 117.70 15.81L117.70 15.81L117.70 15.81Q117.50 14.49 117.50 12.61L117.50 12.61L117.50 12.61Q117.50 12.03 117.53 10.71L117.53 10.71L117.53 10.71Q117.56 9.76 117.56 9.27L117.56 9.27L117.56 9.27Q117.56 9.10 117.61 8.48L117.61 8.48L117.61 8.48Q117.70 7.78 117.70 7.45L117.70 7.45L117.70 6.29L117.70 6.29Q117.70 6.13 117.69 6.06L117.69 6.06L117.69 6.06Q117.68 5.98 117.59 5.74L117.59 5.74L117.60 5.47L117.60 5.47Q117.60 5.32 117.40 5.12L117.40 5.12L117.40 5.12Q117.40 5.14 117.42 5.20L117.42 5.20L117.42 5.20Q117.43 5.26 117.43 5.36L117.43 5.36L117.43 5.36Q117.43 5.57 117.36 5.71L117.36 5.71L117.36 5.71Q117.22 6.06 117.07 6.63L117.07 6.63L117.07 6.63Q116.93 7.20 116.80 7.78L116.80 7.78L116.80 7.78Q116.63 8.51 116.54 8.88L116.54 8.88L116.54 8.88Q116.51 8.97 116.42 9.28L116.42 9.28L116.42 9.28Q116.33 9.58 116.28 9.76L116.28 9.76L116.09 10.81L116.09 10.81Q115.85 12.00 115.78 12.32L115.78 12.32L115.78 12.32Q115.74 12.50 115.68 13.01L115.68 13.01L115.68 13.01Q115.63 13.54 115.56 13.81L115.56 13.81L115.56 13.81Q115.50 14.08 115.37 14.08L115.37 14.08L115.37 14.08Q115.19 14.08 114.94 13.93L114.94 13.93L114.94 13.93Q114.66 13.79 114.53 13.79L114.53 13.79L114.53 13.79Q114.53 13.48 114.48 13.24L114.48 13.24L114.48 13.24Q114.44 12.99 114.32 12.64L114.32 12.64L114.24 12.35L114.00 11.48L114.00 11.48Q113.93 11.24 113.79 10.73L113.79 10.73L113.79 10.73Q113.65 10.22 113.53 9.81L113.53 9.81L113.53 9.81Q113.20 8.78 112.94 8.08L112.94 8.08L112.94 8.08Q112.90 7.97 112.84 7.78L112.84 7.78L112.84 7.78Q112.78 7.59 112.70 7.43L112.70 7.43L112.70 7.43Q112.62 7.28 112.49 7.15L112.49 7.15L112.49 9.17L112.49 9.17Q112.49 9.52 112.36 10.30L112.36 10.30L112.36 10.30Q112.21 11.35 112.21 11.76L112.21 11.76L112.21 13.22L112.21 15.81L112.21 15.81Q112.49 15.81 112.64 15.86L112.64 15.86L112.64 15.86Q112.78 15.90 112.78 16.10L112.78 16.10L112.78 16.10Q112.78 16.45 112.39 16.58L112.39 16.58L112.39 16.58Q112.00 16.72 111.37 16.72L111.37 16.72L111.37 16.72Q111.06 16.72 110.59 16.69L110.59 16.69L110.19 16.67L110.19 16.67Q110.07 16.67 110.00 16.61L110.00 16.61L110.00 16.61Q109.94 16.55 109.84 16.41L109.84 16.41L109.84 16.41Q109.70 16.20 109.61 16.10L109.61 16.10L109.61 16.10Q109.70 16.00 109.78 15.89L109.78 15.89L109.78 15.89Q109.86 15.78 109.93 15.73L109.93 15.73L109.93 15.73Q110.00 15.68 110.10 15.68L110.10 15.68L110.10 15.68Q110.24 15.68 110.49 15.81L110.49 15.81L110.49 12.92L110.49 9.17L110.49 8.60L110.49 5.71L110.49 3.70L110.49 3.70Q110.33 3.70 110.21 3.75L110.21 3.75L110.21 3.75Q110.10 3.79 109.97 3.79L109.97 3.79L109.97 3.79Q109.89 3.79 109.79 3.77L109.79 3.77L109.79 3.77Q109.70 3.75 109.66 3.75L109.66 3.75L109.66 3.75Q109.47 3.70 109.33 3.70L109.33 3.70L109.33 3.70Q109.10 3.47 109.07 3.37L109.07 3.37L109.07 3.37Q109.03 3.26 109.03 2.83L109.03 2.83L109.03 2.83Q109.41 2.70 109.91 2.70L109.91 2.70L109.91 2.70Q110.94 2.70 112.21 3.11L112.21 3.11L112.21 3.11Q112.43 3.58 112.61 3.92L112.61 3.92L112.61 3.92Q112.78 4.26 112.90 4.48L112.90 4.48L112.90 4.48Q112.94 4.54 113.08 4.83L113.08 4.83L113.08 5.12L113.08 5.12Q113.39 5.74 113.64 6.46L113.64 6.46L113.64 6.46Q113.90 7.18 114.21 8.18L114.21 8.18L114.46 8.96L114.46 8.96Q114.58 9.30 114.68 9.53L114.68 9.53L114.68 9.53Q114.79 9.76 114.91 9.98L114.91 9.98L115.09 10.33ZM126.69 5.08L126.69 5.08Q126.62 4.98 126.56 4.82L126.56 4.82L126.56 4.82Q126.55 4.72 126.55 4.51L126.55 4.51L126.55 4.51Q126.55 4.28 126.52 4.16L126.52 4.16L126.52 4.16Q126.49 4.03 126.39 3.95L126.39 3.95L126.39 3.95Q126.11 3.79 125.82 3.65L125.82 3.65L125.82 3.65Q125.17 3.65 124.69 3.70L124.69 3.70L124.69 3.70Q124.21 3.75 123.83 3.95L123.83 3.95L123.83 3.95Q123.68 4.09 123.63 4.30L123.63 4.30L123.63 4.30Q123.58 4.52 123.58 4.90L123.58 4.90L123.58 4.90Q123.58 5.56 123.55 6.26L123.55 6.26L123.54 7.07L123.54 7.07Q123.54 7.28 123.61 7.91L123.61 7.91L123.61 7.91Q123.66 8.33 123.66 8.50L123.66 8.50L123.66 8.50Q123.66 8.83 123.54 9.09L123.54 9.09L123.54 9.09Q123.73 9.25 124.17 9.30L124.17 9.30L124.17 9.30Q124.61 9.35 125.24 9.35L125.24 9.35L125.24 9.35Q125.24 9.00 125.29 8.76L125.29 8.76L125.29 8.76Q125.34 8.51 125.54 8.51L125.54 8.51L125.54 8.51Q125.75 8.51 125.82 8.55L125.82 8.55L125.82 8.55Q125.89 8.58 126.11 8.79L126.11 8.79L126.11 8.79Q126.04 8.93 126.04 9.10L126.04 9.10L126.04 9.10Q126.03 9.17 126.03 9.34L126.03 9.34L126.03 9.34Q126.03 9.63 126.07 9.95L126.07 9.95L126.07 9.95Q126.10 10.35 126.10 10.51L126.10 10.51L126.10 10.51Q126.10 10.79 126.03 10.94L126.03 10.94L126.03 10.94Q125.97 11.09 125.82 11.09L125.82 11.09L125.82 11.09Q125.78 11.06 125.64 10.98L125.64 10.98L125.64 10.98Q125.50 10.89 125.37 10.77L125.37 10.77L125.37 10.77Q125.24 10.64 125.24 10.51L125.24 10.51L125.24 10.22L123.83 10.22L123.83 10.22Q123.68 10.67 123.68 11.41L123.68 11.41L123.68 11.41Q123.68 11.89 123.72 12.35L123.72 12.35L123.72 12.35Q123.75 12.91 123.75 13.12L123.75 13.12L123.75 13.12Q123.75 13.17 123.79 14.64L123.79 14.64L123.79 14.64Q123.83 15.26 123.83 15.65L123.83 15.65L123.83 15.65Q124.40 15.85 124.86 15.89L124.86 15.89L124.86 15.89Q125.31 15.93 126.11 15.93L126.11 15.93L126.11 15.93Q126.32 15.83 126.36 15.64L126.36 15.64L126.36 15.64Q126.41 15.51 126.41 15.23L126.41 15.23L126.41 15.23Q126.41 14.94 126.45 14.78L126.45 14.78L126.45 14.78Q126.50 14.62 126.69 14.52L126.69 14.52L126.69 14.52Q127.06 14.52 127.16 14.90L127.16 14.90L127.16 14.90Q127.26 15.29 127.26 15.93L127.26 15.93L127.26 15.93Q127.26 16.13 127.13 16.30L127.13 16.30L127.13 16.30Q126.99 16.48 126.69 16.80L126.69 16.80L125.24 16.80L125.24 16.80Q123.82 16.80 122.81 16.75L122.81 16.75L122.81 16.75Q121.81 16.70 120.68 16.51L120.68 16.51L120.68 15.93L121.83 15.93L121.83 15.93Q121.95 15.19 121.95 14.31L121.95 14.31L121.95 14.31Q121.95 13.82 121.90 12.78L121.90 12.78L121.90 12.78Q121.83 11.87 121.83 11.09L121.83 11.09L121.83 10.51L121.83 7.64L121.83 6.51L121.83 3.95L120.68 3.95L120.68 3.37L120.68 3.37Q121.27 3.22 122.44 3.08L122.44 3.08L122.44 3.08Q123.56 2.94 124.11 2.80L124.11 2.80L126.97 2.80L126.97 2.80Q126.99 2.83 127.06 2.91L127.06 2.91L127.06 2.91Q127.13 2.98 127.20 3.12L127.20 3.12L127.20 3.12Q127.26 3.25 127.26 3.37L127.26 3.37L127.26 3.37Q127.26 3.54 127.33 3.85L127.33 3.85L127.33 3.85Q127.40 4.34 127.40 4.44L127.40 4.44L127.40 4.44Q127.40 4.75 127.25 4.91L127.25 4.91L127.25 4.91Q127.09 5.08 126.69 5.08L126.69 5.08ZM136.40 3.00L136.40 3.00Q136.40 3.12 136.34 3.25L136.34 3.25L136.34 3.25Q136.28 3.37 136.21 3.45L136.21 3.45L136.21 3.45Q136.15 3.53 136.12 3.56L136.12 3.56L135.55 3.56L135.55 3.56Q135.42 3.68 135.42 3.85L135.42 3.85L135.42 3.85Q135.42 3.92 135.48 4.14L135.48 4.14L135.48 4.14Q135.55 4.52 135.55 4.69L135.55 4.69L135.55 7.87L135.55 7.87Q135.55 12.96 135.77 16.17L135.77 16.17L135.77 16.17Q135.79 16.51 135.60 16.66L135.60 16.66L135.60 16.66Q135.42 16.81 135.16 16.81L135.16 16.81L135.16 16.81Q134.96 16.81 134.77 16.74L134.77 16.74L134.77 16.74Q134.58 16.67 134.48 16.58L134.48 16.58L134.48 16.58Q134.37 16.24 134.22 15.80L134.22 15.80L134.22 15.80Q134.08 15.36 133.90 14.80L133.90 14.80L133.90 14.80Q132.87 11.80 132.45 10.32L132.45 10.32L132.45 10.32Q132.33 9.84 132.08 9.28L132.08 9.28L132.08 9.28Q131.82 8.71 131.80 8.65L131.80 8.65L131.80 8.65Q131.71 8.47 131.67 8.35L131.67 8.35L131.67 8.35Q131.63 8.23 131.61 8.20L131.61 8.20L131.61 8.20Q131.50 7.95 131.45 7.56L131.45 7.56L131.45 7.56Q131.38 7.20 131.29 7.01L131.29 7.01L131.29 7.01Q131.21 6.82 130.97 6.69L130.97 6.69L130.97 8.65L130.97 10.89L130.97 13.15L130.97 13.99L130.97 15.39L130.97 15.39Q131.15 15.57 131.34 15.62L131.34 15.62L131.34 15.62Q131.53 15.67 131.80 15.67L131.80 15.67L131.80 15.67Q131.80 15.81 131.82 16.09L131.82 16.09L131.82 16.09Q131.85 16.31 131.85 16.39L131.85 16.39L131.85 16.39Q131.85 16.59 131.78 16.69L131.78 16.69L131.78 16.69Q131.70 16.79 131.49 16.79L131.49 16.79L130.86 16.80L128.98 16.84L128.98 16.84Q128.87 16.84 128.84 16.75L128.84 16.75L128.84 16.75Q128.80 16.66 128.80 16.48L128.80 16.48L128.80 16.48Q128.80 16.28 128.81 16.17L128.81 16.17L128.83 15.75L128.83 15.75Q128.86 15.76 128.95 15.79L128.95 15.79L128.95 15.79Q129.04 15.82 129.12 15.82L129.12 15.82L129.12 15.82Q129.29 15.82 129.29 15.67L129.29 15.67L129.29 15.67Q129.44 15.34 129.44 14.81L129.44 14.81L129.44 14.81Q129.44 14.59 129.42 14.20L129.42 14.20L129.42 14.20Q129.39 13.83 129.39 13.71L129.39 13.71L129.39 13.71Q129.39 13.22 129.33 12.21L129.33 12.21L129.33 12.21Q129.29 11.59 129.29 11.19L129.29 11.19L129.28 9.21L129.28 9.21Q129.28 8.89 129.22 8.36L129.22 8.36L129.22 8.36Q129.16 7.83 129.16 7.56L129.16 7.56L129.16 7.56Q129.16 7.48 129.09 7.13L129.09 7.13L129.09 7.13Q129.01 6.82 129.01 6.69L129.01 6.69L129.01 6.41L129.01 5.56L129.01 5.56Q129.01 5.35 129.00 5.26L129.00 5.26L128.98 4.84L128.98 4.84Q128.98 4.62 128.84 4.28L128.84 4.28L128.84 4.28Q128.73 4.00 128.73 3.88L128.73 3.88L128.73 3.88Q128.32 3.88 128.10 3.71L128.10 3.71L128.10 3.71Q127.88 3.54 127.88 3.32L127.88 3.32L127.88 3.32Q127.88 3.11 128.02 2.95L128.02 2.95L128.02 2.95Q128.16 2.80 128.37 2.80L128.37 2.80L128.37 2.80Q128.48 2.80 128.54 2.79L128.54 2.79L128.54 2.79Q128.60 2.79 128.66 2.79L128.66 2.79L128.66 2.79Q128.79 2.76 129.01 2.74L129.01 2.74L129.01 2.74Q129.11 2.73 129.23 2.75L129.23 2.75L129.23 2.75Q129.36 2.77 129.43 2.77L129.43 2.77L129.43 2.77Q129.71 2.80 129.92 2.80L129.92 2.80L129.92 2.80Q130.09 2.80 130.20 2.91L130.20 2.91L130.20 2.91Q130.31 3.02 130.36 3.15L130.36 3.15L130.36 3.15Q130.41 3.28 130.41 3.32L130.41 3.32L130.41 3.32Q130.96 4.12 131.35 5.01L131.35 5.01L131.35 5.01Q131.74 5.89 132.27 7.28L132.27 7.28L132.27 7.28Q132.73 8.50 132.93 8.93L132.93 8.93L132.93 8.93Q133.11 9.51 133.31 9.93L133.31 9.93L133.31 9.93Q133.50 10.36 133.78 10.89L133.78 10.89L133.78 10.89Q133.78 11.09 133.83 11.26L133.83 11.26L133.83 11.26Q133.88 11.44 134.02 11.76L134.02 11.76L134.02 11.76Q134.06 11.84 134.16 12.21L134.16 12.21L134.16 12.21Q134.27 12.56 134.41 12.94L134.41 12.94L134.41 12.94Q134.55 13.33 134.68 13.50L134.68 13.50L134.68 13.50Q134.71 13.54 134.72 13.49L134.72 13.49L134.72 13.49Q134.72 13.44 134.72 13.34L134.72 13.34L134.72 13.34Q134.72 13.13 134.67 12.40L134.67 12.40L134.67 12.40Q134.61 11.68 134.61 11.47L134.61 11.47L134.61 11.47Q134.61 10.84 134.67 9.27L134.67 9.27L134.67 9.27Q134.72 7.59 134.72 6.65L134.72 6.65L134.72 6.37L134.72 6.37Q134.72 5.94 134.58 5.24L134.58 5.24L134.58 5.24Q134.44 4.54 134.44 4.12L134.44 4.12L134.44 4.12Q134.18 3.85 133.97 3.70L133.97 3.70L133.97 3.70Q133.77 3.56 133.59 3.56L133.59 3.56L133.59 3.56Q133.50 3.47 133.40 3.40L133.40 3.40L133.40 3.40Q133.29 3.32 133.25 3.25L133.25 3.25L133.25 3.25Q133.20 3.18 133.20 3.08L133.20 3.08L133.20 3.08Q133.20 2.93 133.31 2.70L133.31 2.70L133.31 2.70Q133.43 2.70 133.51 2.74L133.51 2.74L133.51 2.74Q133.59 2.79 133.81 2.79L133.81 2.79L133.81 2.79Q134.08 2.79 134.24 2.75L134.24 2.75L134.24 2.75Q134.40 2.72 134.44 2.70L134.44 2.70L134.44 2.70Q134.61 2.74 134.81 2.74L134.81 2.74L134.81 2.74Q134.95 2.74 135.25 2.72L135.25 2.72L135.25 2.72Q135.69 2.69 135.87 2.70L135.87 2.70L135.87 2.70Q136.28 2.73 136.40 3.00L136.40 3.00ZM144.06 5.45L144.06 5.45Q143.99 5.38 143.93 5.18L143.93 5.18L143.93 5.18Q143.92 5.07 143.92 4.83L143.92 4.83L143.92 4.83Q143.92 4.56 143.89 4.37L143.89 4.37L143.89 4.37Q143.86 4.17 143.77 3.98L143.77 3.98L143.77 3.98Q143.64 3.85 143.32 3.85L143.32 3.85L143.32 3.85Q143.04 3.85 142.66 3.92L142.66 3.92L142.66 3.92Q142.21 3.98 142.03 3.98L142.03 3.98L142.03 3.98Q141.90 4.23 141.90 4.65L141.90 4.65L141.90 4.65Q141.90 4.98 141.97 5.40L141.97 5.40L141.97 5.40Q142.03 5.85 142.03 6.03L142.03 6.03L142.03 11.55L142.03 13.90L142.03 14.49L142.03 14.49Q142.03 14.80 141.99 15.06L141.99 15.06L141.99 15.06Q141.96 15.37 141.96 15.53L141.96 15.53L141.96 15.53Q141.96 15.79 142.03 15.95L142.03 15.95L142.03 15.95Q142.06 16.02 142.14 16.04L142.14 16.04L142.14 16.04Q142.23 16.07 142.29 16.09L142.29 16.09L142.29 16.09Q142.35 16.10 142.38 16.10L142.38 16.10L142.38 16.10Q142.62 16.13 142.76 16.21L142.76 16.21L142.76 16.21Q142.90 16.28 142.90 16.52L142.90 16.52L142.90 16.52Q142.87 16.55 142.79 16.62L142.79 16.62L142.79 16.62Q142.70 16.69 142.57 16.75L142.57 16.75L142.57 16.75Q142.44 16.81 142.31 16.81L142.31 16.81L139.68 16.81L139.68 16.81Q139.48 16.81 139.43 16.67L139.43 16.67L139.43 16.67Q139.38 16.52 139.38 16.23L139.38 16.23L139.38 16.23Q139.54 16.23 139.82 16.09L139.82 16.09L139.82 16.09Q140.10 15.95 140.25 15.95L140.25 15.95L140.27 13.50L140.27 13.50Q140.27 12.74 140.25 12.43L140.25 12.43L140.25 12.43Q140.24 12.03 140.24 11.26L140.24 11.26L140.25 8.95L140.25 7.49L140.25 6.90L140.25 6.90Q140.25 5.81 140.20 5.19L140.20 5.19L140.20 5.19Q140.15 4.58 139.96 3.98L139.96 3.98L139.96 3.98Q139.62 3.88 139.23 3.88L139.23 3.88L139.16 3.88L139.16 3.88Q138.47 3.88 138.03 4.18L138.03 4.18L138.03 4.18Q137.59 4.48 137.59 5.10L137.59 5.10L137.59 5.10Q137.59 5.25 137.63 5.45L137.63 5.45L137.63 5.45Q137.62 5.47 137.53 5.52L137.53 5.52L137.53 5.52Q137.44 5.57 137.34 5.57L137.34 5.57L137.34 5.57Q137.19 5.57 137.06 5.45L137.06 5.45L137.06 5.45Q137.06 5.28 137.00 4.83L137.00 4.83L137.00 4.83Q136.93 4.20 136.93 4.06L136.93 4.06L136.93 4.06Q136.93 3.64 137.06 3.39L137.06 3.39L137.06 3.39Q137.55 3.14 138.00 3.01L138.00 3.01L138.00 3.01Q138.45 2.88 139.05 2.88L139.05 2.88L139.05 2.88Q139.48 2.88 140.49 2.86L140.49 2.86L140.49 2.86Q141.29 2.81 142.03 2.81L142.03 2.81L142.03 2.81Q143.07 2.81 143.76 2.91L143.76 2.91L143.76 2.91Q144.45 3.01 144.63 3.39L144.63 3.39L144.63 3.39Q144.82 3.91 144.82 4.40L144.82 4.40L144.82 4.40Q144.82 4.86 144.63 5.15L144.63 5.15L144.63 5.15Q144.45 5.45 144.06 5.45L144.06 5.45Z"></path></g><!----><g data-v-423bf9ae="" id="e0f995d5-0cce-4a42-9ca3-d40d53272e3c" transform="matrix(1.221165657043457,0,0,1.221165657043457,1157.866943359375,-1177.225830078125)" stroke="none" fill="black"><switch><g><path d="M-855.3 964.1h-87.3c-2.9 0-5.3 2.4-5.3 5.3v63.1c0 2.9 2.4 5.3 5.3 5.3h87.3c2.9 0 5.3-2.4 5.3-5.3v-63.1c0-2.9-2.4-5.3-5.3-5.3zm-61.3 5.5h35.3c.8 0 1.4.6 1.4 1.4 0 .8-.6 1.4-1.4 1.4h-35.3c-.8 0-1.4-.6-1.4-1.4 0-.8.6-1.4 1.4-1.4zm-15.3 0c.8 0 1.4.6 1.4 1.4s-.6 1.4-1.4 1.4c-.8 0-1.4-.6-1.4-1.4s.6-1.4 1.4-1.4zm-4.7 0c.8 0 1.4.6 1.4 1.4s-.6 1.4-1.4 1.4c-.8 0-1.4-.6-1.4-1.4s.7-1.4 1.4-1.4zm-4.6 0c.8 0 1.4.6 1.4 1.4s-.6 1.4-1.4 1.4-1.4-.6-1.4-1.4.6-1.4 1.4-1.4zm88.4 63c0 1.4-1.1 2.5-2.5 2.5h-87.3c-1.4 0-2.5-1.1-2.5-2.5v-54.7h92.4v54.7z"></path><path d="M-910.9 1012.3l-7.3-5.1 7.3-5.1-2.5-3.5-12.3 8.6 12.3 8.6zM-890.6 991h-4.9l-11.9 31h4.8zM-884.6 1015.8l12.3-8.6-12.3-8.6-2.5 3.5 7.3 5.1-7.3 5.1z"></path></g></switch></g><!----></svg>